<svg width="25" height="25" viewBox="0 0 25 25" fill="none" xmlns="http://www.w3.org/2000/svg">
<g filter="url(#filter0_d)">
<rect y="1" width="20" height="19" rx="5" fill="url(#paint0_linear)"/>
<rect x="0.05" y="1.05" width="19.9" height="18.9" rx="4.95" stroke="black" stroke-width="0.1"/>
</g>
<g filter="url(#filter1_d)">
<path d="M10.866 18.5C10.4811 19.1667 9.51888 19.1667 9.13398 18.5L2.20577 6.5C1.82087 5.83333 2.30199 5 3.07179 5L16.9282 5C17.698 5 18.1791 5.83333 17.7942 6.5L10.866 18.5Z" fill="white"/>
<path d="M10.6495 18.375C10.3608 18.875 9.63916 18.875 9.35048 18.375L2.42228 6.375C2.1336 5.875 2.49444 5.25 3.07179 5.25L16.9282 5.25C17.5056 5.25 17.8664 5.875 17.5777 6.375L10.6495 18.375Z" stroke="#9555FC" stroke-width="0.5"/>
</g>
<defs>
<filter id="filter0_d" x="0" y="1" width="25" height="24" filterUnits="userSpaceOnUse" color-interpolation-filters="sRGB">
<feFlood flood-opacity="0" result="BackgroundImageFix"/>
<feColorMatrix in="SourceAlpha" type="matrix" values="0 0 0 0 0 0 0 0 0 0 0 0 0 0 0 0 0 0 127 0" result="hardAlpha"/>
<feOffset dx="3" dy="3"/>
<feGaussianBlur stdDeviation="1"/>
<feComposite in2="hardAlpha" operator="out"/>
<feColorMatrix type="matrix" values="0 0 0 0 0 0 0 0 0 0 0 0 0 0 0 0 0 0 0.25 0"/>
<feBlend mode="normal" in2="BackgroundImageFix" result="effect1_dropShadow"/>
<feBlend mode="normal" in="SourceGraphic" in2="effect1_dropShadow" result="shape"/>
</filter>
<filter id="filter1_d" x="2.0703" y="5" width="20.8594" height="19" filterUnits="userSpaceOnUse" color-interpolation-filters="sRGB">
<feFlood flood-opacity="0" result="BackgroundImageFix"/>
<feColorMatrix in="SourceAlpha" type="matrix" values="0 0 0 0 0 0 0 0 0 0 0 0 0 0 0 0 0 0 127 0" result="hardAlpha"/>
<feOffset dx="3" dy="3"/>
<feGaussianBlur stdDeviation="1"/>
<feComposite in2="hardAlpha" operator="out"/>
<feColorMatrix type="matrix" values="0 0 0 0 0 0 0 0 0 0 0 0 0 0 0 0 0 0 0.25 0"/>
<feBlend mode="normal" in2="BackgroundImageFix" result="effect1_dropShadow"/>
<feBlend mode="normal" in="SourceGraphic" in2="effect1_dropShadow" result="shape"/>
</filter>
<linearGradient id="paint0_linear" x1="10" y1="1" x2="10" y2="20" gradientUnits="userSpaceOnUse">
<stop offset="0.078125" stop-color="#650DF3"/>
<stop offset="0.984375" stop-color="#0D93F3"/>
</linearGradient>
</defs>
</svg>
