<svg xmlns="http://www.w3.org/2000/svg" xmlns:xlink="http://www.w3.org/1999/xlink" aria-hidden="true" role="img" width="120" height="120" preserveAspectRatio="xMidYMid meet" viewBox="0 0 512 512"><path fill="white" d="M88 72v316a20 20 0 0 1-40 0V152H16v236a52.059 52.059 0 0 0 52 52h376a52.059 52.059 0 0 0 52-52V72zm376 316a20.023 20.023 0 0 1-20 20H116a51.722 51.722 0 0 0 4-20V104h344z"/><path fill="white" d="M296 136H152v160h144zm-32 128h-80v-96h80z"/><path fill="white" d="M328 136h104v32H328z"/><path fill="white" d="M328 200h104v32H328z"/><path fill="white" d="M328 264h104v32H328z"/></svg>