<svg width="96" height="96" viewBox="0 0 96 96" fill="none" xmlns="http://www.w3.org/2000/svg">
<rect width="96" height="96" rx="10" fill="url(#paint0_linear)"/>
<path d="M65.9191 17.0777C67.5691 17.0777 68.8291 17.4077 69.6991 18.0677C70.5991 18.6977 71.2441 19.4627 71.6341 20.3627C72.0241 21.2327 72.2191 22.1327 72.2191 23.0627C72.2191 23.9627 72.1441 24.6827 71.9941 25.2227C71.7241 26.3927 71.1091 27.5177 70.1491 28.5977C69.1891 29.6777 68.0491 30.6827 66.7291 31.6127C65.4391 32.5427 64.0291 33.3977 62.4991 34.1777C60.9991 34.9277 59.5291 35.5727 58.0891 36.1127C57.0391 36.5327 55.7341 36.9677 54.1741 37.4177C52.6141 37.8677 51.0841 38.2727 49.5841 38.6327C47.8441 39.0827 46.0291 39.5027 44.1391 39.8927C43.5391 40.6427 42.9241 41.4527 42.2941 42.3227C41.6641 43.1927 41.0641 44.0777 40.4941 44.9777C39.9241 45.8477 39.4141 46.7327 38.9641 47.6327C38.5441 48.5027 38.2291 49.3427 38.0191 50.1527L37.7041 50.9177C37.3141 52.3877 37.2541 53.6027 37.5241 54.5627C37.7941 55.4927 38.3041 56.1977 39.0541 56.6777C39.8041 57.1577 40.7341 57.4427 41.8441 57.5327C42.9541 57.6227 44.1391 57.5477 45.3991 57.3077C46.6591 57.0677 47.9491 56.6777 49.2691 56.1377C50.5891 55.5977 51.8191 54.9677 52.9591 54.2477C54.1291 53.4977 55.1641 52.6727 56.0641 51.7727C56.9941 50.8727 57.6841 49.9277 58.1341 48.9377C58.2541 48.6977 58.3441 48.4727 58.4041 48.2627C58.4941 48.0227 58.5691 47.7827 58.6291 47.5427C58.6591 47.5427 58.6891 47.5277 58.7191 47.4977C59.1391 46.0277 59.4691 44.6927 59.7091 43.4927C59.9791 42.2927 60.0541 41.2727 59.9341 40.4327C59.8441 40.1627 59.7391 39.9377 59.6191 39.7577C59.4991 39.5777 59.4091 39.4277 59.3491 39.3077C59.3191 39.1577 59.3491 39.0377 59.4391 38.9477C59.5291 38.8277 59.7541 38.7227 60.1141 38.6327C60.4741 38.5427 60.8641 38.5577 61.2841 38.6777C61.7041 38.7977 62.1091 39.0677 62.4991 39.4877C62.8891 39.8777 63.2491 40.4177 63.5791 41.1077C63.9091 41.7977 64.1641 42.6527 64.3441 43.6727C64.4641 44.3627 64.3591 45.4577 64.0291 46.9577C63.6991 48.4277 63.1741 50.1677 62.4541 52.1777C61.7341 54.1577 60.8491 56.3327 59.7991 58.7027C58.7791 61.0427 57.6091 63.4127 56.2891 65.8127C54.9991 68.2427 53.5891 70.6127 52.0591 72.9227C50.5591 75.2327 48.9841 77.3327 47.3341 79.2227C45.6841 81.1127 43.9891 82.7327 42.2491 84.0827C40.5091 85.4327 38.7541 86.3477 36.9841 86.8277C36.4441 86.9777 35.8891 87.0077 35.3191 86.9177C34.7491 86.8577 34.2091 86.6627 33.6991 86.3327C33.2191 86.0027 32.7841 85.5377 32.3941 84.9377C32.0041 84.3677 31.7341 83.6327 31.5841 82.7327C31.4941 82.2827 31.7041 81.6677 32.2141 80.8877C32.7241 80.1077 33.4141 79.2377 34.2841 78.2777C35.1841 77.3177 36.2191 76.2977 37.3891 75.2177C38.5591 74.1377 39.7591 73.0727 40.9891 72.0227C43.8691 69.5327 47.1691 66.8777 50.8891 64.0577C51.1291 63.6977 51.4141 63.2177 51.7441 62.6177C52.1041 62.0177 52.4941 61.3277 52.9141 60.5477C53.3341 59.7677 53.7691 58.9127 54.2191 57.9827C54.6691 57.0527 55.1191 56.0927 55.5691 55.1027C54.0091 56.1827 52.2991 57.0677 50.4391 57.7577C48.5791 58.4177 46.7341 58.8377 44.9041 59.0177C43.0741 59.1977 41.3341 59.1227 39.6841 58.7927C38.0641 58.4627 36.6991 57.8177 35.5891 56.8577C34.5091 55.8977 33.7591 54.6227 33.3391 53.0327C32.9191 51.4127 33.0241 49.4177 33.6541 47.0477C33.8941 46.0277 34.2991 44.9627 34.8691 43.8527C35.4691 42.7127 36.2041 41.5127 37.0741 40.2527L36.3991 40.2977C34.2691 40.1477 32.4391 39.7277 30.9091 39.0377C29.3791 38.3477 28.4191 37.2977 28.0291 35.8877C27.7291 34.7777 27.7141 33.7577 27.9841 32.8277C28.2541 31.8677 28.6441 31.0427 29.1541 30.3527C29.6341 29.6627 30.1591 29.1377 30.7291 28.7777C31.2991 28.3877 31.7491 28.1927 32.0791 28.1927C32.4091 28.1927 32.5291 28.2677 32.4391 28.4177C32.3491 28.5377 32.2141 28.7327 32.0341 29.0027C31.8241 29.2727 31.6291 29.6027 31.4491 29.9927C31.2391 30.3827 31.2091 30.8327 31.3591 31.3427C31.6891 32.5727 32.5291 33.6227 33.8791 34.4927C35.2291 35.3627 36.9091 36.0227 38.9191 36.4727C39.2491 35.9927 39.6091 35.5127 39.9991 35.0327C40.3891 34.5227 40.7941 34.0127 41.2141 33.5027C42.9541 31.2827 44.9791 29.1377 47.2891 27.0677C48.4291 25.9877 49.5541 24.9977 50.6641 24.0977C51.7741 23.1977 52.8991 22.3727 54.0391 21.6227C56.4691 20.0627 58.6291 18.9227 60.5191 18.2027C62.4091 17.4527 64.2091 17.0777 65.9191 17.0777ZM35.2741 83.6777C35.9641 83.4977 36.6991 83.1227 37.4791 82.5527C38.2591 81.9827 39.0391 81.2927 39.8191 80.4827C40.5991 79.6727 41.3641 78.7877 42.1141 77.8277C42.8941 76.8677 43.6291 75.8927 44.3191 74.9027C45.9391 72.5927 47.5441 70.0427 49.1341 67.2527C46.0741 69.7727 43.3591 72.0827 40.9891 74.1827C39.9691 75.0827 38.9791 75.9827 38.0191 76.8827C37.0591 77.7827 36.2041 78.6077 35.4541 79.3577C34.7341 80.1377 34.1491 80.8127 33.6991 81.3827C33.2791 81.9527 33.0991 82.3577 33.1591 82.5977C33.2491 83.1077 33.4891 83.4527 33.8791 83.6327C34.2991 83.8127 34.7641 83.8277 35.2741 83.6777ZM68.7541 25.7627C68.9341 25.0127 68.7841 24.4277 68.3041 24.0077C67.8241 23.5877 67.2841 23.3777 66.6841 23.3777C64.6441 23.3777 61.5841 24.6377 57.5041 27.1577C56.9641 27.4577 56.2441 27.9077 55.3441 28.5077C54.4741 29.1077 53.4691 29.8727 52.3291 30.8027C51.4291 31.5527 50.5891 32.3177 49.8091 33.0977C49.0291 33.8777 48.2941 34.6277 47.6041 35.3477C47.3341 35.6777 47.0641 35.9927 46.7941 36.2927C46.5541 36.5927 46.2841 36.8927 45.9841 37.1927C48.0241 37.1327 50.0941 36.8477 52.1941 36.3377C54.2941 35.7977 56.3491 35.1227 58.3591 34.3127C59.1991 33.9827 60.1741 33.5027 61.2841 32.8727C62.4241 32.2127 63.5191 31.4777 64.5691 30.6677C65.6191 29.8577 66.5341 29.0327 67.3141 28.1927C68.0941 27.3227 68.5741 26.5127 68.7541 25.7627Z" fill="white"/>
<path d="M69.6991 18.0677L69.0948 18.8644L69.11 18.876L69.1257 18.8869L69.6991 18.0677ZM71.6341 20.3627L70.7165 20.7603L70.7216 20.7717L71.6341 20.3627ZM71.9941 25.2227L71.0306 24.9551L71.0247 24.9763L71.0198 24.9978L71.9941 25.2227ZM66.7291 31.6127L66.1532 30.7952L66.1443 30.8015L66.7291 31.6127ZM62.4991 34.1777L62.9464 35.0722L62.9533 35.0686L62.4991 34.1777ZM58.0891 36.1127L57.738 35.1764L57.7278 35.1802L57.7178 35.1842L58.0891 36.1127ZM54.1741 37.4177L53.897 36.4569L53.897 36.4569L54.1741 37.4177ZM49.5841 38.6327L49.3508 37.6603L49.3422 37.6624L49.3338 37.6645L49.5841 38.6327ZM44.1391 39.8927L43.9371 38.9133L43.5837 38.9862L43.3583 39.268L44.1391 39.8927ZM42.2941 42.3227L41.4842 41.7362L41.4842 41.7362L42.2941 42.3227ZM40.4941 44.9777L41.3306 45.5257L41.3348 45.5193L41.339 45.5127L40.4941 44.9777ZM38.9641 47.6327L38.0696 47.1854L38.0636 47.1979L38.9641 47.6327ZM38.0191 50.1527L38.9438 50.5334L38.9699 50.47L38.9871 50.4037L38.0191 50.1527ZM37.7041 50.9177L36.7795 50.5369L36.7544 50.5977L36.7376 50.6613L37.7041 50.9177ZM37.5241 54.5627L36.5615 54.8335L36.5638 54.8415L37.5241 54.5627ZM39.0541 56.6777L38.5151 57.52L38.5151 57.52L39.0541 56.6777ZM41.8441 57.5327L41.7633 58.5294L41.7633 58.5294L41.8441 57.5327ZM45.3991 57.3077L45.212 56.3254L45.212 56.3254L45.3991 57.3077ZM49.2691 56.1377L48.8905 55.2121L48.8905 55.2121L49.2691 56.1377ZM52.9591 54.2477L53.4931 55.0932L53.4988 55.0896L52.9591 54.2477ZM56.0641 51.7727L55.3687 51.0541L55.3628 51.0598L55.357 51.0656L56.0641 51.7727ZM58.1341 48.9377L57.2397 48.4905L57.2314 48.507L57.2238 48.5239L58.1341 48.9377ZM58.4041 48.2627L57.4678 47.9116L57.4537 47.9493L57.4426 47.988L58.4041 48.2627ZM58.6291 47.5427V46.5427H57.8484L57.659 47.3002L58.6291 47.5427ZM58.7191 47.4977L59.4263 48.2048L59.6095 48.0216L59.6807 47.7724L58.7191 47.4977ZM59.7091 43.4927L58.7335 43.2732L58.7309 43.2849L58.7286 43.2966L59.7091 43.4927ZM59.9341 40.4327L60.9241 40.2913L60.9113 40.202L60.8828 40.1165L59.9341 40.4327ZM59.6191 39.7577L58.7871 40.3124L58.7871 40.3124L59.6191 39.7577ZM59.3491 39.3077L58.3686 39.5038L58.3948 39.6351L58.4547 39.7549L59.3491 39.3077ZM59.4391 38.9477L60.1463 39.6548L60.1965 39.6045L60.2391 39.5477L59.4391 38.9477ZM60.1141 38.6327L60.3567 39.6028L60.3567 39.6028L60.1141 38.6327ZM62.4991 39.4877L61.7664 40.1681L61.7789 40.1817L61.792 40.1948L62.4991 39.4877ZM63.5791 41.1077L62.677 41.5392L62.677 41.5392L63.5791 41.1077ZM64.3441 43.6727L65.3294 43.5014L65.3289 43.4989L64.3441 43.6727ZM64.0291 46.9577L65.0049 47.1767L65.0058 47.1726L64.0291 46.9577ZM62.4541 52.1777L63.3939 52.5194L63.3956 52.5149L62.4541 52.1777ZM59.7991 58.7027L58.8848 58.2976L58.8824 58.3031L59.7991 58.7027ZM56.2891 65.8127L55.4129 65.3308L55.4094 65.3373L55.4059 65.3438L56.2891 65.8127ZM52.0591 72.9227L51.2254 72.3705L51.2205 72.3781L52.0591 72.9227ZM42.2491 84.0827L41.6361 83.2926L41.6361 83.2926L42.2491 84.0827ZM36.9841 86.8277L36.7224 85.8625L36.7165 85.8642L36.9841 86.8277ZM35.3191 86.9177L35.4751 85.9299L35.4496 85.9259L35.4238 85.9232L35.3191 86.9177ZM33.6991 86.3327L33.1326 87.1567L33.1441 87.1647L33.1559 87.1723L33.6991 86.3327ZM32.3941 84.9377L33.2326 84.3927L33.2261 84.3828L33.2194 84.373L32.3941 84.9377ZM31.5841 82.7327L32.5705 82.5683L32.5679 82.5524L32.5647 82.5366L31.5841 82.7327ZM32.2141 80.8877L31.3772 80.3404L31.3772 80.3404L32.2141 80.8877ZM34.2841 78.2777L33.5546 77.5938L33.5488 77.5999L33.5432 77.6062L34.2841 78.2777ZM37.3891 75.2177L36.7109 74.4829L36.7109 74.4829L37.3891 75.2177ZM40.9891 72.0227L41.6384 72.7833L41.6432 72.7792L40.9891 72.0227ZM50.8891 64.0577L51.4932 64.8546L51.6276 64.7527L51.7212 64.6124L50.8891 64.0577ZM51.7441 62.6177L50.8867 62.1032L50.877 62.1193L50.8679 62.1358L51.7441 62.6177ZM52.9141 60.5477L53.7946 61.0218L53.7946 61.0218L52.9141 60.5477ZM54.2191 57.9827L53.319 57.5471L53.319 57.5471L54.2191 57.9827ZM55.5691 55.1027L56.4795 55.5165L57.9787 52.2183L54.9999 54.2805L55.5691 55.1027ZM50.4391 57.7577L50.7736 58.7001L50.7803 58.6977L50.787 58.6953L50.4391 57.7577ZM44.9041 59.0177L44.8063 58.0225L44.8063 58.0225L44.9041 59.0177ZM39.6841 58.7927L39.4845 59.7726L39.488 59.7733L39.6841 58.7927ZM35.5891 56.8577L34.9247 57.6052L34.935 57.6141L35.5891 56.8577ZM33.3391 53.0327L32.3711 53.2837L32.3723 53.2881L33.3391 53.0327ZM33.6541 47.0477L34.6206 47.3046L34.6243 47.2907L34.6276 47.2767L33.6541 47.0477ZM34.8691 43.8527L33.9842 43.3869L33.9796 43.3959L34.8691 43.8527ZM37.0741 40.2527L37.897 40.8209L39.0734 39.1172L37.0076 39.2549L37.0741 40.2527ZM36.3991 40.2977L36.3289 41.2952L36.3973 41.3L36.4657 41.2955L36.3991 40.2977ZM30.9091 39.0377L30.498 39.9493L30.498 39.9493L30.9091 39.0377ZM28.0291 35.8877L27.0638 36.1486L27.0653 36.1543L28.0291 35.8877ZM27.9841 32.8277L28.9445 33.1065L28.9468 33.0984L27.9841 32.8277ZM29.1541 30.3527L29.9583 30.9471L29.9669 30.9355L29.975 30.9238L29.1541 30.3527ZM30.7291 28.7777L31.2631 29.6232L31.2787 29.6134L31.2938 29.603L30.7291 28.7777ZM32.4391 28.4177L33.2391 29.0177L33.2701 28.9764L33.2966 28.9322L32.4391 28.4177ZM32.0341 29.0027L32.8235 29.6166L32.8459 29.5878L32.8662 29.5574L32.0341 29.0027ZM31.4491 29.9927L32.3296 30.4668L32.3442 30.4397L32.3571 30.4118L31.4491 29.9927ZM31.3591 31.3427L32.325 31.0836L32.3219 31.072L32.3185 31.0605L31.3591 31.3427ZM33.8791 34.4927L34.4208 33.6521L34.4208 33.6521L33.8791 34.4927ZM38.9191 36.4727L38.7007 37.4485L39.3603 37.5962L39.7432 37.0392L38.9191 36.4727ZM39.9991 35.0327L40.7753 35.6633L40.7845 35.6519L40.7935 35.6401L39.9991 35.0327ZM41.2141 33.5027L41.9861 34.1384L41.9937 34.1291L42.0012 34.1196L41.2141 33.5027ZM47.2891 27.0677L47.9565 27.8124L47.9668 27.8032L47.9769 27.7936L47.2891 27.0677ZM50.6641 24.0977L50.0343 23.3209L50.0343 23.3209L50.6641 24.0977ZM54.0391 21.6227L53.4989 20.7811L53.4895 20.7873L54.0391 21.6227ZM60.5191 18.2027L60.8752 19.1373L60.888 19.1322L60.5191 18.2027ZM35.2741 83.6777L35.0217 82.7101L35.0068 82.714L34.992 82.7183L35.2741 83.6777ZM39.8191 80.4827L40.5395 81.1763L40.5395 81.1763L39.8191 80.4827ZM42.1141 77.8277L41.338 77.1971L41.332 77.2045L41.3261 77.2121L42.1141 77.8277ZM44.3191 74.9027L43.5004 74.3285L43.4987 74.3309L44.3191 74.9027ZM49.1341 67.2527L50.003 67.7478L48.4984 66.4808L49.1341 67.2527ZM40.9891 74.1827L41.6508 74.9325L41.6523 74.9312L40.9891 74.1827ZM38.0191 76.8827L37.3352 76.1532L37.3352 76.1532L38.0191 76.8827ZM35.4541 79.3577L34.747 78.6506L34.7329 78.6647L34.7193 78.6794L35.4541 79.3577ZM33.6991 81.3827L32.9143 80.7631L32.904 80.7761L32.8941 80.7895L33.6991 81.3827ZM33.1591 82.5977L34.1439 82.4239L34.1378 82.3893L34.1293 82.3552L33.1591 82.5977ZM33.8791 83.6327L33.4601 84.5407L33.4726 84.5464L33.4852 84.5518L33.8791 83.6327ZM68.7541 25.7627L67.7818 25.5293L67.7818 25.5293L68.7541 25.7627ZM68.3041 24.0077L68.9626 23.2551L68.9626 23.2551L68.3041 24.0077ZM57.5041 27.1577L57.9898 28.0319L58.01 28.0206L58.0296 28.0085L57.5041 27.1577ZM55.3441 28.5077L54.7894 27.6756L54.7829 27.68L54.7764 27.6845L55.3441 28.5077ZM52.3291 30.8027L51.697 30.0278L51.689 30.0345L52.3291 30.8027ZM49.8091 33.0977L50.5162 33.8048L50.5163 33.8048L49.8091 33.0977ZM47.6041 35.3477L46.8822 34.6558L46.855 34.6841L46.8302 34.7145L47.6041 35.3477ZM46.7941 36.2927L46.0508 35.6237L46.0314 35.6453L46.0133 35.668L46.7941 36.2927ZM45.9841 37.1927L45.277 36.4856L43.4963 38.2663L46.0135 38.1923L45.9841 37.1927ZM52.1941 36.3377L52.4302 37.3095L52.4432 37.3062L52.1941 36.3377ZM58.3591 34.3127L57.9935 33.3819L57.9854 33.3852L58.3591 34.3127ZM61.2841 32.8727L61.7778 33.7424L61.7852 33.7381L61.2841 32.8727ZM67.3141 28.1927L68.0469 28.8731L68.0529 28.8667L68.0587 28.8602L67.3141 28.1927ZM65.9191 18.0777C67.4567 18.0777 68.4674 18.3885 69.0948 18.8644L70.3035 17.271C69.1909 16.4269 67.6816 16.0777 65.9191 16.0777V18.0777ZM69.1257 18.8869C69.8929 19.424 70.4087 20.0497 70.7166 20.7603L72.5517 19.9651C72.0796 18.8757 71.3054 17.9714 70.2726 17.2485L69.1257 18.8869ZM70.7216 20.7717C71.0555 21.5164 71.2191 22.2773 71.2191 23.0627H73.2191C73.2191 21.9881 72.9928 20.949 72.5467 19.9536L70.7216 20.7717ZM71.2191 23.0627C71.2191 23.9198 71.1463 24.5385 71.0306 24.9551L72.9577 25.4903C73.142 24.8269 73.2191 24.0056 73.2191 23.0627H71.2191ZM71.0198 24.9978C70.7944 25.9745 70.273 26.9532 69.4017 27.9333L70.8966 29.2621C71.9453 28.0822 72.6539 26.8109 72.9685 25.4476L71.0198 24.9978ZM69.4017 27.9333C68.4984 28.9496 67.4176 29.9044 66.1532 30.7952L67.3051 32.4302C68.6807 31.461 69.8799 30.4058 70.8966 29.2621L69.4017 27.9333ZM66.1443 30.8015C64.8989 31.6994 63.533 32.5282 62.045 33.2868L62.9533 35.0686C64.5253 34.2672 65.9794 33.386 67.3139 32.4239L66.1443 30.8015ZM62.0519 33.2833C60.5804 34.019 59.1425 34.6497 57.738 35.1764L58.4403 37.049C59.9158 36.4957 61.4179 35.8364 62.9464 35.0721L62.0519 33.2833ZM57.7178 35.1842C56.7087 35.5879 55.4375 36.0125 53.897 36.4569L54.4513 38.3785C56.0308 37.9229 57.3696 37.4775 58.4605 37.0412L57.7178 35.1842ZM53.897 36.4569C52.3507 36.9029 50.8353 37.304 49.3508 37.6603L49.8175 39.6051C51.3329 39.2414 52.8775 38.8325 54.4513 38.3785L53.897 36.4569ZM49.3338 37.6645C47.6109 38.1101 45.812 38.5264 43.9371 38.9133L44.3412 40.8721C46.2462 40.479 48.0774 40.0553 49.8345 39.6008L49.3338 37.6645ZM43.3583 39.268C42.7472 40.0319 42.1225 40.8547 41.4842 41.7362L43.1041 42.9092C43.7258 42.0507 44.3311 41.2535 44.92 40.5174L43.3583 39.268ZM41.4842 41.7362C40.8421 42.6228 40.2305 43.525 39.6493 44.4426L41.339 45.5127C41.8978 44.6304 42.4861 43.7626 43.1041 42.9092L41.4842 41.7362ZM39.6577 44.4297C39.0671 45.331 38.5376 46.2496 38.0697 47.1855L39.8586 48.0799C40.2906 47.2158 40.7812 46.3644 41.3306 45.5257L39.6577 44.4297ZM38.0636 47.1979C37.6194 48.118 37.2798 49.0196 37.0511 49.9017L38.9871 50.4037C39.1784 49.6658 39.4689 48.8874 39.8647 48.0674L38.0636 47.1979ZM37.0945 49.7719L36.7795 50.5369L38.6288 51.2984L38.9438 50.5334L37.0945 49.7719ZM36.7376 50.6613C36.3239 52.2205 36.224 53.6336 36.5615 54.8334L38.4868 54.292C38.2843 53.5718 38.3044 52.5549 38.6707 51.1741L36.7376 50.6613ZM36.5638 54.8415C36.895 55.9822 37.5425 56.8975 38.5151 57.52L39.5932 55.8354C39.0658 55.4979 38.6933 55.0032 38.4845 54.2839L36.5638 54.8415ZM38.5151 57.52C39.4332 58.1076 40.5304 58.4295 41.7633 58.5294L41.925 56.536C40.9379 56.4559 40.1751 56.2078 39.5932 55.8354L38.5151 57.52ZM41.7633 58.5294C42.9752 58.6277 44.2511 58.5444 45.5863 58.29L45.212 56.3254C44.0272 56.551 42.9331 56.6177 41.925 56.536L41.7633 58.5294ZM45.5863 58.29C46.9186 58.0362 48.2728 57.6257 49.6478 57.0632L48.8905 55.2121C47.6255 55.7296 46.3996 56.0991 45.212 56.3254L45.5863 58.29ZM49.6478 57.0632C51.0187 56.5024 52.301 55.8461 53.4931 55.0932L52.4252 53.4022C51.3372 54.0893 50.1596 54.693 48.8905 55.2121L49.6478 57.0632ZM53.4988 55.0896C54.7238 54.3043 55.816 53.435 56.7713 52.4798L55.357 51.0656C54.5123 51.9104 53.5345 52.6911 52.4195 53.4058L53.4988 55.0896ZM56.7596 52.4913C57.7629 51.5203 58.5338 50.4751 59.0445 49.3515L57.2238 48.5239C56.8345 49.3802 56.2254 50.2251 55.3687 51.0541L56.7596 52.4913ZM59.0286 49.3849C59.1702 49.1016 59.2854 48.8185 59.3657 48.5374L57.4426 47.988C57.4029 48.1269 57.3381 48.2938 57.2397 48.4905L59.0286 49.3849ZM59.3405 48.6138C59.4433 48.3396 59.5298 48.0633 59.5993 47.7852L57.659 47.3002C57.6085 47.5021 57.545 47.7058 57.4678 47.9116L59.3405 48.6138ZM58.6291 48.5427C59.0179 48.5427 59.2873 48.3438 59.4263 48.2048L58.012 46.7906C58.091 46.7116 58.3004 46.5427 58.6291 46.5427V48.5427ZM59.6807 47.7724C60.1063 46.2826 60.4433 44.9208 60.6897 43.6888L58.7286 43.2966C58.495 44.4646 58.1719 45.7728 57.7576 47.223L59.6807 47.7724ZM60.6848 43.7122C60.9705 42.4424 61.0671 41.2925 60.9241 40.2913L58.9442 40.5741C59.0412 41.2529 58.9878 42.143 58.7335 43.2732L60.6848 43.7122ZM60.8828 40.1165C60.773 39.787 60.6332 39.476 60.4512 39.203L58.7871 40.3124C58.8451 40.3994 58.9153 40.5384 58.9855 40.7489L60.8828 40.1165ZM60.4512 39.203C60.3421 39.0394 60.2773 38.928 60.2436 38.8605L58.4547 39.7549C58.541 39.9274 58.6562 40.116 58.7871 40.3124L60.4512 39.203ZM60.3297 39.1116C60.337 39.1482 60.3477 39.2342 60.3193 39.3477C60.289 39.4688 60.2255 39.5755 60.1463 39.6548L58.732 38.2406C58.3556 38.617 58.2882 39.1019 58.3686 39.5038L60.3297 39.1116ZM60.2391 39.5477C60.1852 39.6196 60.1344 39.6591 60.1132 39.6742C60.0911 39.69 60.0828 39.6923 60.0983 39.6851C60.1127 39.6784 60.1406 39.6667 60.1857 39.6517C60.2302 39.6368 60.2867 39.6203 60.3567 39.6028L59.8716 37.6626C59.6568 37.7163 59.4438 37.7835 59.2525 37.8728C59.0773 37.9545 58.8274 38.0967 58.6391 38.3477L60.2391 39.5477ZM60.3567 39.6028C60.5185 39.5624 60.728 39.5588 61.0094 39.6392L61.5589 37.7162C61.0003 37.5566 60.4298 37.523 59.8716 37.6626L60.3567 39.6028ZM61.0094 39.6392C61.2072 39.6957 61.4627 39.8411 61.7664 40.1681L63.2319 38.8072C62.7556 38.2943 62.2011 37.8997 61.5589 37.7162L61.0094 39.6392ZM61.792 40.1948C62.0775 40.4802 62.3784 40.9148 62.677 41.5392L64.4813 40.6762C64.1199 39.9206 63.7008 39.2751 63.2063 38.7806L61.792 40.1948ZM62.677 41.5392C62.9569 42.1243 63.1899 42.8865 63.3594 43.8465L65.3289 43.4989C65.1383 42.4189 64.8614 41.471 64.4813 40.6762L62.677 41.5392ZM63.3589 43.844C63.4428 44.3261 63.38 45.2543 63.0525 46.7428L65.0058 47.1726C65.3383 45.6611 65.4855 44.3993 65.3294 43.5014L63.3589 43.844ZM63.0534 46.7387C62.7353 48.1559 62.2241 49.8546 61.5127 51.8405L63.3956 52.5149C64.1242 50.4808 64.663 48.6995 65.0049 47.1767L63.0534 46.7387ZM61.5144 51.836C60.8037 53.7904 59.9276 55.9439 58.8849 58.2976L60.7134 59.1078C61.7706 56.7215 62.6646 54.525 63.3939 52.5194L61.5144 51.836ZM58.8824 58.3031C57.8755 60.6131 56.7192 62.9557 55.4129 65.3308L57.1654 66.2946C58.499 63.8697 59.6828 61.4723 60.7158 59.1023L58.8824 58.3031ZM55.4059 65.3438C54.1312 67.7451 52.7377 70.0873 51.2254 72.3705L52.8929 73.4749C54.4406 71.1381 55.8671 68.7403 57.1724 66.2816L55.4059 65.3438ZM51.2205 72.3781C49.7437 74.6522 48.1969 76.7139 46.5808 78.565L48.0875 79.8804C49.7714 77.9515 51.3746 75.8132 52.8978 73.4673L51.2205 72.3781ZM46.5808 78.565C44.9675 80.4131 43.3188 81.9871 41.6361 83.2926L42.8621 84.8728C44.6595 83.4783 46.4008 81.8123 48.0875 79.8804L46.5808 78.565ZM41.6361 83.2926C39.98 84.5775 38.342 85.4233 36.7224 85.8626L37.2459 87.7928C39.1662 87.2721 41.0383 86.2878 42.8621 84.8728L41.6361 83.2926ZM36.7165 85.8642C36.3185 85.9747 35.9081 85.9983 35.4751 85.9299L35.1632 87.9055C35.8702 88.0171 36.5698 87.9807 37.2518 87.7912L36.7165 85.8642ZM35.4238 85.9232C35.0195 85.8806 34.6285 85.743 34.2424 85.4931L33.1559 87.1723C33.7898 87.5824 34.4788 87.8348 35.2145 87.9122L35.4238 85.9232ZM34.2657 85.5087C33.9154 85.2678 33.567 84.9072 33.2326 84.3927L31.5557 85.4827C32.0013 86.1682 32.5229 86.7376 33.1326 87.1567L34.2657 85.5087ZM33.2194 84.373C32.9336 83.9552 32.7039 83.3687 32.5705 82.5683L30.5977 82.8971C30.7643 83.8967 31.0747 84.7802 31.5688 85.5024L33.2194 84.373ZM32.5647 82.5366C32.5658 82.542 32.5501 82.4634 32.6205 82.2571C32.6897 82.0545 32.8238 81.7825 33.0511 81.4349L31.3772 80.3404C30.8507 81.1456 30.4298 82.0601 30.6036 82.9288L32.5647 82.5366ZM33.0511 81.4349C33.5238 80.712 34.1778 79.8842 35.0251 78.9492L33.5432 77.6062C32.6504 78.5912 31.9245 79.5034 31.3772 80.3404L33.0511 81.4349ZM35.0137 78.9616C35.8942 78.0224 36.9116 77.0194 38.0674 75.9525L36.7109 74.4829C35.5267 75.576 34.4741 76.613 33.5546 77.5938L35.0137 78.9616ZM38.0674 75.9525C39.2278 74.8814 40.4181 73.825 41.6384 72.7833L40.3399 71.2621C39.1002 72.3204 37.8905 73.394 36.7109 74.4829L38.0674 75.9525ZM41.6432 72.7792C44.5038 70.3059 47.7867 67.6644 51.4932 64.8546L50.285 63.2608C46.5516 66.091 43.2344 68.7595 40.3351 71.2662L41.6432 72.7792ZM51.7212 64.6124C51.9833 64.2193 52.2836 63.712 52.6204 63.0996L50.8679 62.1358C50.5447 62.7234 50.275 63.1761 50.0571 63.503L51.7212 64.6124ZM52.6016 63.1322C52.9714 62.516 53.3691 61.812 53.7946 61.0218L52.0337 60.0736C51.6192 60.8433 51.2369 61.5194 50.8867 62.1032L52.6016 63.1322ZM53.7946 61.0218C54.2225 60.2272 54.664 59.3592 55.1193 58.4183L53.319 57.5471C52.8743 58.4662 52.4458 59.3082 52.0337 60.0736L53.7946 61.0218ZM55.1193 58.4183C55.573 57.4807 56.0264 56.5134 56.4795 55.5165L54.6588 54.6889C54.2119 55.672 53.7653 56.6247 53.319 57.5471L55.1193 58.4183ZM54.9999 54.2805C53.5117 55.3108 51.8766 56.1579 50.0913 56.8201L50.787 58.6953C52.7217 57.9775 54.5066 57.0546 56.1384 55.9249L54.9999 54.2805ZM50.1047 56.8153C48.3156 57.4501 46.5499 57.851 44.8063 58.0225L45.002 60.0129C46.9184 59.8244 48.8427 59.3853 50.7736 58.7001L50.1047 56.8153ZM44.8063 58.0225C43.0654 58.1937 41.425 58.1211 39.8803 57.8121L39.488 59.7733C41.2433 60.1243 43.0829 60.2017 45.002 60.0129L44.8063 58.0225ZM39.8837 57.8128C38.4103 57.5127 37.2077 56.9354 36.2433 56.1013L34.935 57.6141C36.1906 58.7 37.718 59.4127 39.4845 59.7726L39.8837 57.8128ZM36.2535 56.1103C35.3401 55.2984 34.6829 54.2042 34.306 52.7773L32.3723 53.2881C32.8354 55.0412 33.6781 56.497 34.9248 57.6051L36.2535 56.1103ZM34.3071 52.7817C33.9458 51.3881 34.0156 49.5804 34.6206 47.3046L32.6877 46.7908C32.0327 49.255 31.8924 51.4372 32.3711 53.2837L34.3071 52.7817ZM34.6276 47.2767C34.8458 46.3491 35.219 45.3605 35.7587 44.3095L33.9796 43.3959C33.3793 44.5648 32.9425 45.7063 32.6807 46.8187L34.6276 47.2767ZM35.7541 44.3184C36.3324 43.2196 37.0456 42.0539 37.897 40.8209L36.2512 39.6845C35.3626 40.9715 34.6059 42.2057 33.9842 43.3869L35.7541 44.3184ZM37.0076 39.2549L36.3326 39.2999L36.4657 41.2955L37.1407 41.2505L37.0076 39.2549ZM36.4694 39.3002C34.4266 39.1563 32.7178 38.7564 31.3203 38.1261L30.498 39.9493C32.1605 40.699 34.1117 41.1391 36.3289 41.2952L36.4694 39.3002ZM31.3203 38.1261C30.0165 37.5382 29.2915 36.7006 28.993 35.6211L27.0653 36.1543C27.5468 37.8948 28.7418 39.1572 30.498 39.9493L31.3203 38.1261ZM28.9945 35.6268C28.7333 34.6603 28.7345 33.8299 28.9445 33.1065L27.0238 32.5489C26.6938 33.6855 26.725 34.8951 27.0638 36.1486L28.9945 35.6268ZM28.9468 33.0984C29.1892 32.2364 29.531 31.5253 29.9583 30.9471L28.35 29.7583C27.7573 30.5601 27.319 31.499 27.0215 32.5569L28.9468 33.0984ZM29.975 30.9238C30.3969 30.3173 30.8303 29.8965 31.2631 29.6232L30.1952 27.9322C29.488 28.3789 28.8713 29.0081 28.3332 29.7816L29.975 30.9238ZM31.2938 29.603C31.5457 29.4307 31.7435 29.3207 31.8918 29.2565C32.0468 29.1893 32.1007 29.1927 32.0791 29.1927V27.1927C31.4227 27.1927 30.7536 27.5493 30.1645 27.9524L31.2938 29.603ZM32.0791 29.1927C32.1286 29.1927 32.1391 29.1959 32.1229 29.1932C32.1192 29.1925 32.0157 29.1776 31.8866 29.0969C31.732 29.0003 31.5212 28.79 31.476 28.4514C31.4375 28.1621 31.5474 27.9603 31.5816 27.9032L33.2966 28.9322C33.3759 28.8001 33.5046 28.5327 33.4585 28.1871C33.4059 27.7923 33.1613 27.5351 32.9466 27.4009C32.7576 27.2828 32.5678 27.2397 32.4517 27.2204C32.323 27.1989 32.1947 27.1927 32.0791 27.1927V29.1927ZM31.6391 27.8177C31.5314 27.9614 31.3834 28.176 31.2021 28.448L32.8662 29.5574C33.0449 29.2894 33.1669 29.114 33.2391 29.0177L31.6391 27.8177ZM31.2448 28.3888C30.9778 28.732 30.7454 29.1311 30.5412 29.5736L32.3571 30.4118C32.5129 30.0743 32.6705 29.8134 32.8235 29.6166L31.2448 28.3888ZM30.5687 29.5186C30.2094 30.1857 30.1914 30.9162 30.3998 31.6249L32.3185 31.0605C32.2269 30.7491 32.2688 30.5797 32.3296 30.4668L30.5687 29.5186ZM30.3933 31.6018C30.8031 33.1294 31.8353 34.3652 33.3374 35.3333L34.4208 33.6521C33.2229 32.8801 32.5751 32.016 32.325 31.0836L30.3933 31.6018ZM33.3374 35.3333C34.8099 36.2822 36.6067 36.9797 38.7007 37.4485L39.1376 35.4969C37.2116 35.0657 35.6484 34.4432 34.4208 33.6521L33.3374 35.3333ZM39.7432 37.0392C40.0572 36.5825 40.4011 36.1238 40.7753 35.6633L39.223 34.4021C38.8172 34.9015 38.4411 35.4029 38.0951 35.9062L39.7432 37.0392ZM40.7935 35.6401C41.176 35.14 41.5735 34.6394 41.9861 34.1384L40.4422 32.867C40.0148 33.386 39.6023 33.9054 39.2048 34.4252L40.7935 35.6401ZM42.0012 34.1196C43.7018 31.9499 45.6858 29.8472 47.9565 27.8124L46.6218 26.323C44.2725 28.4282 42.2065 30.6155 40.4271 32.8858L42.0012 34.1196ZM47.9769 27.7936C49.1 26.7296 50.2057 25.7568 51.2939 24.8744L50.0343 23.3209C48.9025 24.2386 47.7583 25.2458 46.6014 26.3417L47.9769 27.7936ZM51.2939 24.8745C52.3794 23.9943 53.4777 23.1891 54.5888 22.4581L53.4895 20.7873C52.3206 21.5563 51.1689 22.401 50.0343 23.3209L51.2939 24.8745ZM54.5794 22.4642C56.9738 20.9271 59.0705 19.8247 60.8751 19.1372L60.1631 17.2682C58.1878 18.0207 55.9645 19.1983 53.4989 20.7812L54.5794 22.4642ZM60.888 19.1322C62.6823 18.4201 64.3569 18.0777 65.9191 18.0777V16.0777C64.0614 16.0777 62.136 16.4852 60.1503 17.2732L60.888 19.1322ZM35.5266 84.6453C36.3729 84.4245 37.2214 83.9796 38.0692 83.3601L36.8891 81.7453C36.1768 82.2658 35.5553 82.5709 35.0217 82.7101L35.5266 84.6453ZM38.0692 83.3601C38.9026 82.751 39.7257 82.0214 40.5395 81.1763L39.0988 79.7891C38.3526 80.564 37.6156 81.2144 36.8891 81.7453L38.0692 83.3601ZM40.5395 81.1763C41.3452 80.3396 42.1327 79.4283 42.9022 78.4433L41.3261 77.2121C40.5956 78.1471 39.853 79.0058 39.0988 79.7891L40.5395 81.1763ZM42.8903 78.4583C43.6853 77.4797 44.4352 76.4851 45.1395 75.4745L43.4987 74.3309C42.8231 75.3003 42.1029 76.2557 41.338 77.1971L42.8903 78.4583ZM45.1379 75.4769C46.778 73.1381 48.3996 70.5613 50.003 67.7478L48.2653 66.7576C46.6887 69.5241 45.1002 72.0473 43.5004 74.3285L45.1379 75.4769ZM48.4984 66.4808C45.4313 69.0066 42.7069 71.3246 40.326 73.4342L41.6523 74.9312C44.0114 72.8408 46.717 70.5388 49.7699 68.0246L48.4984 66.4808ZM40.3275 73.4329C39.3002 74.3393 38.3028 75.2461 37.3352 76.1532L38.7031 77.6122C39.6555 76.7193 40.6381 75.8261 41.6508 74.9325L40.3275 73.4329ZM37.3352 76.1532C36.3691 77.0588 35.5062 77.8914 34.747 78.6506L36.1612 80.0648C36.9021 79.324 37.7492 78.5065 38.7031 77.6122L37.3352 76.1532ZM34.7193 78.6794C33.9891 79.4706 33.3856 80.166 32.9143 80.7631L34.484 82.0023C34.9127 81.4594 35.4792 80.8048 36.1889 80.036L34.7193 78.6794ZM32.8941 80.7895C32.6634 81.1026 32.4668 81.4121 32.3353 81.7078C32.2182 81.9713 32.0764 82.3896 32.189 82.8402L34.1293 82.3552C34.1585 82.472 34.1454 82.553 34.1423 82.5697C34.139 82.5874 34.1394 82.5731 34.163 82.5201C34.2115 82.4108 34.3149 82.2328 34.5042 81.9759L32.8941 80.7895ZM32.1744 82.7715C32.308 83.5286 32.7092 84.1941 33.4601 84.5407L34.2982 82.7247C34.2691 82.7113 34.1903 82.6868 34.1439 82.4239L32.1744 82.7715ZM33.4852 84.5518C34.1531 84.8381 34.8615 84.8414 35.5563 84.6371L34.992 82.7183C34.6668 82.814 34.4452 82.7873 34.2731 82.7136L33.4852 84.5518ZM69.7265 25.9961C69.9715 24.9753 69.7863 23.9758 68.9626 23.2551L67.6456 24.7603C67.782 24.8796 67.8968 25.05 67.7818 25.5293L69.7265 25.9961ZM68.9626 23.2551C68.3128 22.6865 67.5425 22.3777 66.6841 22.3777V24.3777C67.0258 24.3777 67.3354 24.4888 67.6456 24.7603L68.9626 23.2551ZM66.6841 22.3777C65.4774 22.3777 64.0633 22.7454 62.4784 23.398C60.8814 24.0556 59.0462 25.0299 56.9787 26.3069L58.0296 28.0085C60.042 26.7655 61.7769 25.8498 63.2399 25.2474C64.715 24.64 65.8509 24.3777 66.6841 24.3777V22.3777ZM57.0185 26.2835C56.4438 26.6028 55.6979 27.07 54.7894 27.6756L55.8988 29.3397C56.7903 28.7454 57.4845 28.3126 57.9898 28.0319L57.0185 26.2835ZM54.7764 27.6845C53.8776 28.3043 52.8504 29.0869 51.697 30.0278L52.9613 31.5776C54.0879 30.6585 55.0706 29.9111 55.9119 29.3309L54.7764 27.6845ZM51.689 30.0345C50.7672 30.8026 49.9047 31.5879 49.102 32.3906L50.5163 33.8048C51.2736 33.0474 52.0911 32.3028 52.9693 31.5709L51.689 30.0345ZM49.102 32.3906C48.3175 33.1751 47.5775 33.9302 46.8822 34.6558L48.3261 36.0396C49.0107 35.3252 49.7407 34.5803 50.5162 33.8048L49.102 32.3906ZM46.8302 34.7145C46.5696 35.033 46.3098 35.336 46.0508 35.6237L47.5374 36.9617C47.8185 36.6494 48.0987 36.3224 48.3781 35.9809L46.8302 34.7145ZM46.0133 35.668C45.7986 35.9364 45.5536 36.209 45.277 36.4856L46.6913 37.8998C47.0147 37.5764 47.3097 37.249 47.575 36.9174L46.0133 35.668ZM46.0135 38.1923C48.1271 38.1301 50.2664 37.8349 52.4301 37.3094L51.9581 35.3659C49.9219 35.8605 47.9211 36.1353 45.9547 36.1931L46.0135 38.1923ZM52.4432 37.3062C54.5856 36.7553 56.6823 36.0666 58.7329 35.2402L57.9854 33.3852C56.016 34.1788 54.0027 34.8401 51.9451 35.3692L52.4432 37.3062ZM58.7248 35.2434C59.6227 34.8907 60.642 34.387 61.7777 33.7424L60.7905 32.003C59.7063 32.6184 58.7756 33.0747 57.9935 33.3819L58.7248 35.2434ZM61.7852 33.7381C62.9636 33.0559 64.0953 32.2962 65.1799 31.4595L63.9583 29.8759C62.943 30.6592 61.8847 31.3695 60.7831 32.0073L61.7852 33.7381ZM65.1799 31.4595C66.267 30.6209 67.2241 29.7592 68.0469 28.8731L66.5813 27.5122C65.8442 28.3061 64.9713 29.0945 63.9583 29.8759L65.1799 31.4595ZM68.0587 28.8602C68.8972 27.925 69.4929 26.9695 69.7265 25.9961L67.7818 25.5293C67.6554 26.0559 67.2911 26.7204 66.5696 27.5251L68.0587 28.8602Z" fill="url(#paint1_linear)"/>
<defs>
<linearGradient id="paint0_linear" x1="48" y1="0" x2="48" y2="96" gradientUnits="userSpaceOnUse">
<stop offset="0.09375" stop-color="#650DF3"/>
<stop offset="0.927083" stop-color="#0D93F3"/>
</linearGradient>
<linearGradient id="paint1_linear" x1="48" y1="25.1077" x2="48" y2="69.4154" gradientUnits="userSpaceOnUse">
<stop offset="0.260417" stop-color="#6C11FF"/>
<stop offset="0.9375" stop-color="#9555FC" stop-opacity="0"/>
</linearGradient>
</defs>
</svg>
